<?xml version="1.0" standalone="no"?>
<!DOCTYPE svg PUBLIC "-//W3C//DTD SVG 20010904//EN"
 "http://www.w3.org/TR/2001/REC-SVG-20010904/DTD/svg10.dtd">
<svg version="1.0" xmlns="http://www.w3.org/2000/svg"
 width="294.000000pt" height="294.000000pt" viewBox="0 0 294.000000 294.000000"
 preserveAspectRatio="xMidYMid meet">
<metadata>
Created by potrace 1.14, written by Peter Selinger 2001-2017
</metadata>
<g transform="translate(0.000000,294.000000) scale(0.100000,-0.100000)"
fill="#000000" stroke="none">
<path d="M1204 2341 c-5 -5 -15 -7 -79 -15 -22 -3 -50 -8 -62 -11 -13 -3 -33
-7 -45 -10 -109 -24 -252 -130 -323 -240 -26 -40 -75 -135 -69 -135 2 0 -3
-16 -11 -36 -8 -20 -13 -40 -10 -44 3 -5 1 -10 -5 -12 -6 -2 -12 -21 -15 -43
-3 -22 -9 -62 -15 -90 -5 -27 -12 -63 -15 -80 -5 -30 -14 -77 -20 -105 -2 -8
-4 -15 -5 -15 -1 0 -3 -13 -5 -30 -1 -16 -3 -30 -4 -30 -2 0 -4 -11 -7 -25 -7
-40 -13 -52 -24 -45 -5 3 -44 8 -86 11 -42 2 -80 7 -85 10 -5 3 -9 1 -9 -4 0
-4 -18 -7 -40 -5 -49 4 -82 -13 -133 -66 -50 -51 -57 -98 -20 -141 13 -17 31
-30 39 -30 8 0 14 -4 14 -8 0 -11 70 -37 130 -49 16 -3 30 -8 30 -12 0 -3 19
-7 41 -8 23 -2 47 -7 53 -12 6 -5 24 -8 38 -7 15 2 25 -1 22 -6 -3 -5 6 -7 20
-4 14 2 27 -1 30 -7 3 -9 5 -8 5 1 1 9 6 10 19 3 9 -5 33 -11 52 -13 19 -3 42
-7 50 -11 8 -3 42 -11 75 -18 64 -14 71 -15 83 -19 4 -1 10 -2 13 -2 4 1 22
-3 40 -9 19 -6 43 -12 54 -14 36 -6 207 -45 241 -54 18 -5 35 -6 38 -3 3 3 6
1 6 -4 0 -5 8 -10 18 -11 15 -1 46 -7 102 -18 8 -2 15 -4 15 -5 0 -3 41 -9 75
-13 14 -1 27 -5 31 -9 3 -4 18 -9 35 -12 16 -2 36 -6 44 -10 8 -3 29 -8 45
-10 17 -2 37 -6 45 -9 8 -4 26 -8 40 -9 14 -2 31 -7 38 -11 6 -5 12 -6 12 -3
0 3 19 -1 43 -8 24 -7 51 -12 60 -10 9 1 17 -1 17 -5 0 -4 10 -7 23 -6 12 1
27 -2 34 -7 6 -5 20 -8 30 -6 10 1 23 0 28 -4 6 -3 26 -9 45 -12 46 -8 78 -14
98 -20 19 -6 49 -11 141 -26 36 -6 68 -13 73 -16 4 -3 22 -7 40 -9 18 -2 49
-7 68 -11 19 -3 54 -7 77 -8 24 0 43 -3 43 -6 0 -10 219 -9 225 0 3 5 12 7 20
3 8 -3 15 0 15 6 0 6 3 10 8 9 15 -3 42 15 42 28 0 8 5 14 11 14 5 0 7 4 4 10
-3 5 -1 19 5 30 6 11 7 20 3 20 -4 0 -9 19 -11 43 -1 23 -7 44 -12 45 -6 2
-10 10 -10 17 0 7 -17 23 -37 36 -43 27 -193 90 -193 82 0 -3 -7 0 -15 7 -8 7
-15 10 -15 7 0 -3 -16 1 -35 9 -19 8 -37 14 -40 14 -3 0 -10 0 -15 0 -6 0 -8
11 -4 25 4 17 2 25 -7 25 -12 0 -12 2 0 9 8 5 11 16 8 25 -4 9 -3 16 2 16 5 0
8 10 7 23 -1 12 1 38 5 57 4 19 10 69 14 110 3 41 8 98 12 125 12 99 5 308
-11 333 -3 5 -8 24 -11 43 -3 19 -10 38 -16 43 -5 6 -9 17 -9 26 0 9 -9 26
-20 38 -11 12 -20 25 -20 29 1 20 -136 163 -156 163 -7 0 -15 7 -18 16 -3 8
-10 12 -16 9 -5 -3 -10 -2 -10 3 0 11 -124 72 -145 72 -8 0 -15 5 -15 10 0 6
-10 10 -23 10 -13 0 -27 4 -33 8 -5 5 -29 14 -54 21 -25 7 -53 17 -64 23 -14
7 -16 6 -10 -4 6 -10 5 -10 -7 -2 -14 12 -157 47 -239 60 -25 3 -56 8 -70 10
-82 13 -357 24 -366 15z"/>
</g>
</svg>
